<svg width="1500" height="1500" viewBox="0 0 1500 1500" fill="none" xmlns="http://www.w3.org/2000/svg">
<path d="M1380.85 920.174H1331.79C1330.68 920.171 1329.58 920.41 1328.58 920.874C1327.58 921.338 1326.68 922.015 1325.97 922.859C1324.16 922.527 1322.3 922.628 1320.53 923.154C1318.77 923.681 1317.16 924.617 1315.83 925.886C1314.5 927.156 1313.49 928.722 1312.88 930.457C1312.27 932.191 1312.09 934.045 1312.34 935.866C1312.59 937.686 1313.27 939.421 1314.32 940.929C1315.37 942.437 1316.76 943.674 1318.39 944.539C1320.01 945.404 1321.82 945.873 1323.66 945.906C1325.5 945.939 1327.32 945.536 1328.97 944.729L1333.04 957.935C1333.52 959.5 1334.49 960.87 1335.81 961.842C1337.13 962.815 1338.73 963.34 1340.37 963.34H1372.27C1373.91 963.34 1375.5 962.815 1376.82 961.842C1378.14 960.869 1379.11 959.5 1379.6 957.935L1388.18 930.082C1388.53 928.937 1388.61 927.725 1388.41 926.544C1388.21 925.363 1387.73 924.245 1387.02 923.282C1386.31 922.318 1385.38 921.535 1384.3 920.995C1383.23 920.455 1382.05 920.174 1380.85 920.174ZM1323.9 942.587C1321.69 942.587 1319.58 941.712 1318.02 940.156C1316.46 938.599 1315.59 936.487 1315.59 934.286C1315.59 932.084 1316.46 929.973 1318.02 928.416C1319.58 926.859 1321.69 925.985 1323.9 925.985C1324.05 925.985 1324.19 926.021 1324.34 926.029C1324.01 927.366 1324.05 928.766 1324.46 930.082L1327.97 941.479C1326.73 942.196 1325.33 942.578 1323.9 942.587Z" fill="#F0F0F0"/>
<path d="M185.502 885.309H136.437C135.33 885.306 134.236 885.545 133.231 886.009C132.227 886.473 131.336 887.15 130.62 887.994C128.811 887.662 126.948 887.763 125.185 888.289C123.422 888.816 121.809 889.752 120.479 891.021C119.148 892.291 118.138 893.857 117.532 895.592C116.925 897.326 116.739 899.18 116.989 901.001C117.239 902.821 117.918 904.556 118.969 906.064C120.021 907.572 121.416 908.809 123.039 909.674C124.662 910.539 126.468 911.008 128.308 911.041C130.148 911.074 131.969 910.671 133.622 909.864L139.354 957.935C139.836 959.5 140.808 960.869 142.127 961.842C143.446 962.815 145.043 963.34 146.682 963.34H178.583C180.222 963.34 181.818 962.815 183.137 961.842C184.456 960.869 185.428 959.5 185.91 957.935L192.83 895.217C193.183 894.072 193.262 892.86 193.06 891.679C192.858 890.498 192.382 889.38 191.669 888.417C190.956 887.453 190.027 886.67 188.956 886.13C187.885 885.59 186.702 885.309 185.502 885.309ZM128.55 907.722C126.346 907.722 124.231 906.847 122.673 905.291C121.114 903.734 120.238 901.622 120.238 899.421C120.238 897.219 121.114 895.108 122.673 893.551C124.231 891.994 126.346 891.12 128.55 891.12C128.702 891.12 128.843 891.156 128.994 891.164C128.663 892.501 128.703 893.901 129.11 895.217L132.621 906.614C131.384 907.331 129.981 907.713 128.55 907.722Z" fill="#F0F0F0"/>
<path d="M765.151 845.463C765.151 842.836 764.371 840.268 762.909 838.084C761.448 835.9 759.371 834.198 756.94 833.192C754.51 832.187 751.836 831.924 749.256 832.437C746.676 832.949 744.306 834.214 742.446 836.072C740.586 837.929 739.319 840.296 738.806 842.872C738.293 845.449 738.556 848.119 739.563 850.546C740.57 852.973 742.274 855.047 744.461 856.507C746.649 857.966 749.22 858.745 751.851 858.745C752.016 858.745 752.177 858.726 752.341 858.72C755.63 869.396 757.387 880.483 757.56 891.651C757.686 897.218 757.368 902.787 756.607 908.304C756.028 912.219 754.947 916.71 751.056 918.538C748.154 919.902 750.682 924.197 753.573 922.839C757.962 920.777 760.097 916.154 761.054 911.637C762.146 905.812 762.649 899.893 762.556 893.968C762.608 881.65 760.806 869.395 757.212 857.613C759.572 856.575 761.58 854.874 762.99 852.716C764.399 850.559 765.15 848.039 765.151 845.463Z" fill="#E6E6E6"/>
<path d="M761.088 925.498C761.088 925.498 743.254 881.661 796.754 848.784L761.088 925.498Z" fill="#E6E6E6"/>
<path d="M760.131 924.701C760.131 924.701 754.691 893.456 712.585 893.724L760.131 924.701Z" fill="#E6E6E6"/>
<path d="M789.966 963.074H716.848C715.445 963.074 714.071 962.68 712.882 961.937C711.693 961.194 710.737 960.132 710.123 958.873L694.204 926.195C693.649 925.056 693.393 923.795 693.461 922.531C693.528 921.267 693.916 920.04 694.588 918.967C695.261 917.893 696.196 917.008 697.305 916.394C698.414 915.781 699.661 915.459 700.929 915.459H805.885C807.153 915.459 808.4 915.781 809.509 916.394C810.618 917.008 811.553 917.893 812.225 918.967C812.898 920.04 813.286 921.266 813.353 922.531C813.42 923.795 813.165 925.056 812.61 926.194L796.691 958.873C796.077 960.132 795.121 961.194 793.932 961.937C792.743 962.68 791.368 963.074 789.966 963.074Z" fill="#F0F0F0"/>
<path d="M1415.34 965H83.6625C83.2216 965 82.7987 964.825 82.4869 964.514C82.1752 964.202 82 963.78 82 963.34C82 962.899 82.1752 962.477 82.4869 962.166C82.7987 961.854 83.2216 961.679 83.6625 961.679H1415.34C1415.78 961.679 1416.2 961.854 1416.51 962.166C1416.82 962.477 1417 962.899 1417 963.34C1417 963.78 1416.82 964.202 1416.51 964.514C1416.2 964.825 1415.78 965 1415.34 965Z" fill="#3F39B5"/>
<path d="M359.765 868.585L327.454 746.583L323.713 732.5L327.221 729.247L387.441 699.454L473.492 701.594L524.011 727.494L524.284 746.583L526.778 918.568L536.856 960.783H352.024L366.375 893.55L359.765 868.585Z" fill="#C09AEC"/>
<path d="M572.323 960.783H524.155L510.856 864.889L514.337 746.584L514.817 730.489L524.012 727.493C530.942 732.548 536.671 739.066 540.791 746.584C546.7 756.855 551.609 771.575 550.388 791.366C550.388 791.366 551.48 814.737 550.44 830.3C549.726 840.935 562.155 908.154 572.323 960.783Z" fill="#C09AEC"/>
<path d="M359.934 867.366L359.765 868.585L346.985 960.783H291.596C296.037 908.543 301.258 843.23 300.557 832.764C299.518 817.214 300.609 793.831 300.609 793.831C299.284 772.392 305.167 756.933 311.699 746.584C314.986 741.323 319.034 736.576 323.713 732.499C324.75 731.59 325.843 730.745 326.985 729.97L336.18 732.953L338.583 746.584L359.934 867.366Z" fill="#C09AEC"/>
<path d="M366.318 619.284C366.318 631.065 369.817 642.582 376.371 652.378C382.925 662.174 392.241 669.809 403.141 674.318C414.041 678.826 426.034 680.006 437.605 677.707C449.176 675.409 459.805 669.736 468.147 661.405C476.49 653.074 482.171 642.46 484.472 630.905C486.774 619.35 485.593 607.373 481.078 596.488C476.563 585.603 468.918 576.3 459.108 569.755C449.299 563.209 437.766 559.716 425.968 559.716C410.188 559.676 395.037 565.899 383.851 577.014C372.664 588.13 366.358 603.228 366.318 618.987C366.318 619.086 366.318 619.185 366.318 619.284Z" fill="#FFB7B7"/>
<path d="M616.499 951.284C616.499 954.684 615.146 957.944 612.739 960.349C610.331 962.753 607.066 964.104 603.661 964.104H260.258C256.853 964.104 253.588 962.753 251.18 960.349C248.773 957.944 247.42 954.684 247.42 951.283C247.42 947.883 248.773 944.623 251.18 942.218C253.588 939.814 256.853 938.463 260.258 938.463H264.069C263.851 937.7 263.738 936.91 263.732 936.116V761.038C263.732 758.085 264.907 755.253 266.998 753.165C269.089 751.077 271.924 749.904 274.881 749.904H589.038C591.995 749.904 594.831 751.077 596.921 753.165C599.012 755.253 600.187 758.085 600.187 761.038V936.116C600.188 936.911 600.074 937.701 599.85 938.463H603.661C605.347 938.463 607.016 938.795 608.574 939.439C610.131 940.084 611.547 941.028 612.739 942.218C613.931 943.409 614.876 944.822 615.522 946.377C616.167 947.933 616.499 949.6 616.499 951.284Z" fill="#3F39B5"/>
<path d="M438.61 849.898C434.686 849.898 430.849 848.735 427.586 846.558C424.322 844.38 421.779 841.285 420.277 837.664C418.775 834.043 418.382 830.059 419.147 826.215C419.913 822.371 421.803 818.84 424.578 816.068C427.353 813.297 430.889 811.409 434.739 810.644C438.588 809.88 442.578 810.272 446.204 811.772C449.83 813.272 452.93 815.812 455.11 819.071C457.291 822.329 458.455 826.161 458.455 830.08C458.449 835.334 456.356 840.372 452.636 844.087C448.916 847.802 443.872 849.892 438.61 849.898ZM438.61 813.584C435.343 813.584 432.149 814.552 429.433 816.364C426.716 818.177 424.599 820.753 423.349 823.768C422.098 826.782 421.771 830.099 422.409 833.299C423.046 836.499 424.619 839.439 426.93 841.746C429.24 844.053 432.184 845.624 435.388 846.26C438.592 846.897 441.914 846.57 444.932 845.321C447.951 844.073 450.531 841.958 452.346 839.245C454.161 836.532 455.13 833.343 455.13 830.08C455.125 825.707 453.382 821.514 450.286 818.421C447.189 815.329 442.99 813.589 438.61 813.584Z" fill="white"/>
<path d="M431.96 841.596C442.002 841.596 450.142 833.467 450.142 823.44C450.142 813.412 442.002 805.283 431.96 805.283C421.919 805.283 413.778 813.412 413.778 823.44C413.778 833.467 421.919 841.596 431.96 841.596Z" fill="white"/>
<path d="M989.733 670.61V635.444C989.733 614.309 998.141 594.039 1013.11 579.094C1028.07 564.149 1048.37 555.753 1069.53 555.753C1090.7 555.753 1111 564.149 1125.96 579.094C1140.93 594.039 1149.33 614.309 1149.33 635.444V670.61C1149.33 675.372 1147.43 679.937 1144.06 683.305C1140.69 686.672 1136.12 688.566 1131.35 688.571H1023.48L1014.67 669.872V688.571H1007.72C1002.95 688.566 998.38 686.672 995.008 683.305C991.636 679.937 989.739 675.372 989.733 670.61Z" fill="#2F2E41"/>
<path d="M1127.73 783.165L1131.17 820.359L1132.73 837.258L1135.23 864.166L1135.54 867.636L1137.57 889.49L1137.62 889.729C1138.9 893.817 1141.46 897.385 1144.93 899.901C1148.4 902.418 1152.59 903.75 1156.88 903.698L1249.45 902.101L1275.58 901.649C1276.08 902.403 1276.57 903.082 1277.06 903.686C1279.36 906.468 1282.21 908.738 1285.44 910.347C1288.67 911.957 1292.21 912.87 1295.81 913.028C1299.44 913.194 1303.05 912.586 1306.42 911.244C1309.79 909.901 1312.84 907.856 1315.35 905.245C1315.86 904.729 1316.35 904.189 1316.8 903.623C1320.22 899.417 1322.23 894.239 1322.53 888.829C1322.83 883.418 1321.4 878.051 1318.46 873.496C1316.51 870.446 1313.92 867.849 1310.87 865.88C1307.83 863.911 1304.4 862.615 1300.81 862.079C1297.25 861.533 1293.6 861.742 1290.12 862.693C1286.65 863.644 1283.41 865.315 1280.61 867.599C1279.73 868.327 1278.9 869.122 1278.13 869.975L1249.45 865.801L1177.22 855.302L1174.13 813.682C1174.12 813.494 1174.11 813.305 1174.09 813.104L1171.6 779.519C1171.18 773.93 1168.65 768.711 1164.51 764.928C1160.37 761.144 1154.94 759.082 1149.33 759.162C1147.48 759.181 1145.64 759.438 1143.86 759.929C1141.87 760.469 1139.96 761.29 1138.2 762.368C1134.67 764.506 1131.83 767.59 1129.98 771.267C1128.13 774.945 1127.35 779.068 1127.73 783.165Z" fill="#FFB8B8"/>
<path d="M1072.76 690.5C1101.66 690.5 1125.09 667.107 1125.09 638.25C1125.09 609.393 1101.66 586 1072.76 586C1043.87 586 1020.44 609.393 1020.44 638.25C1020.44 667.107 1043.87 690.5 1072.76 690.5Z" fill="#FFB8B8"/>
<path d="M1142.53 725.334L1152.04 722.167C1152.04 722.167 1171.07 730.084 1171.07 744.334C1171.07 758.584 1174.24 815.585 1174.24 815.585L1131.43 820.335L1142.53 725.334Z" fill="#C09AEC"/>
<path d="M940.138 962.443H977.862L990.767 854.447L995.439 815.443L996.08 810.061L999.531 781.191C999.716 777.566 998.906 773.96 997.189 770.761C995.471 767.562 992.91 764.893 989.783 763.042C986.657 761.191 983.083 760.228 979.449 760.258C975.814 760.288 972.257 761.309 969.161 763.211C968.381 763.69 967.637 764.224 966.932 764.808C964.767 766.585 963.003 768.801 961.758 771.308C960.512 773.816 959.812 776.559 959.705 779.356L956.305 811.105L940.138 962.443Z" fill="#FFB8B8"/>
<path d="M996.717 815.584L953.908 810.834C953.908 810.834 957.079 753.834 957.079 739.584C957.079 725.334 976.106 717.417 976.106 717.417L985.619 720.584L996.717 815.584Z" fill="#C09AEC"/>
<path d="M982.835 962.443H1161.79C1156.12 940.801 1148.39 919.753 1138.69 899.587C1137.11 896.38 1136.18 894.67 1136.18 894.67C1136.18 894.67 1060.08 893.174 1012.51 912.173C1009.48 913.481 1006.76 915.418 1004.53 917.856C996.294 926.356 989.093 942.313 982.835 962.443Z" fill="#2F2E41"/>
<path d="M1020.44 707.917C1020.44 707.917 1018.93 707.108 1109.23 710.392L1147.02 720.786L1152.04 722.167C1152.04 722.167 1147.28 817.168 1134.6 834.585C1121.91 852.001 1125.09 861.501 1128.26 863.085C1131.43 864.668 1139.36 861.501 1134.6 869.418C1129.84 877.335 1123.5 872.585 1129.84 877.335C1136.18 882.085 1139.36 899.502 1139.36 899.502L999.829 918.502C999.829 918.502 995.073 856.751 982.389 825.085C969.704 793.418 966.533 780.751 966.533 780.751L976.046 717.417L1020.44 707.917Z" fill="#C09AEC"/>
<path d="M1024.65 599.749C1024.65 586.099 1030.08 573.008 1039.74 563.356C1049.41 553.704 1062.52 548.282 1076.18 548.282C1089.85 548.282 1102.96 553.704 1112.63 563.356C1122.29 573.008 1127.72 586.099 1127.72 599.749V622.992H1024.65V599.749Z" fill="#2F2E41"/>
<path d="M1243.27 949.38V953.969C1243.27 956.657 1242.2 959.234 1240.29 961.135C1238.39 963.035 1235.81 964.103 1233.12 964.104H895.588C892.897 964.103 890.316 963.035 888.413 961.135C886.51 959.234 885.44 956.657 885.44 953.969V949.38C885.44 946.692 886.51 944.115 888.413 942.214C890.316 940.314 892.897 939.246 895.588 939.245H901.581C901.37 938.505 901.26 937.739 901.254 936.969V764.934C901.256 762.68 902.153 760.519 903.749 758.925C905.345 757.332 907.509 756.436 909.766 756.434H1218.94C1221.2 756.436 1223.36 757.332 1224.96 758.925C1226.55 760.519 1227.45 762.68 1227.45 764.934V936.969C1227.45 937.74 1227.34 938.506 1227.13 939.245H1233.12C1235.81 939.246 1238.39 940.314 1240.29 942.214C1242.2 944.115 1243.27 946.692 1243.27 949.38Z" fill="#3F39B5"/>
<path d="M1071 853.632C1067.19 853.632 1063.46 852.503 1060.29 850.386C1057.11 848.269 1054.64 845.261 1053.18 841.741C1051.72 838.221 1051.34 834.347 1052.08 830.611C1052.83 826.874 1054.67 823.441 1057.36 820.747C1060.06 818.053 1063.5 816.218 1067.24 815.475C1070.98 814.732 1074.86 815.113 1078.39 816.571C1081.91 818.029 1084.92 820.498 1087.04 823.666C1089.16 826.834 1090.29 830.559 1090.29 834.369C1090.29 839.476 1088.25 844.372 1084.64 847.984C1081.02 851.595 1076.12 853.627 1071 853.632ZM1071 818.425C1067.85 818.425 1064.76 819.361 1062.13 821.112C1059.51 822.864 1057.46 825.354 1056.25 828.267C1055.05 831.181 1054.73 834.386 1055.35 837.479C1055.96 840.572 1057.48 843.413 1059.71 845.642C1061.95 847.872 1064.79 849.39 1067.89 850.006C1070.99 850.621 1074.2 850.305 1077.11 849.098C1080.03 847.892 1082.52 845.848 1084.28 843.226C1086.03 840.604 1086.97 837.522 1086.97 834.369C1086.96 830.142 1085.28 826.089 1082.29 823.1C1079.29 820.112 1075.24 818.43 1071 818.425V818.425Z" fill="white"/>
<path d="M1064.35 845.331C1074.09 845.331 1081.98 837.45 1081.98 827.728C1081.98 818.006 1074.09 810.124 1064.35 810.124C1054.62 810.124 1046.73 818.006 1046.73 827.728C1046.73 837.45 1054.62 845.331 1064.35 845.331Z" fill="white"/>
<path d="M493.537 569.802C488.728 566.094 484.819 561.351 482.101 555.925C481.131 553.863 479.792 551.994 478.151 550.411L466.872 559.073L473.765 547.084C456.111 536.428 421.639 542.088 421.639 542.088C385.778 523.018 372.61 546.822 368.019 561.919C366.201 567.382 362.994 572.28 358.712 576.135C349.866 584.558 363.796 600.942 363.796 600.942V602.1L367.121 624.653C367.121 624.653 370.446 609.71 379.221 599.21C384.753 592.59 393.757 588.654 397.939 588.736C451.91 589.788 462.128 591.922 462.128 591.922C462.128 591.922 471.265 596.824 475.3 598.883C488.341 605.537 485.16 629.633 485.16 629.633L494.905 586.867C497.154 576.501 495.905 571.744 493.537 569.802Z" fill="#2F2E41"/>
<circle cx="1094.5" cy="647.5" r="4.5" fill="#3F39B5"/>
<circle cx="450" cy="622" r="5" fill="#3F39B5"/>
<circle opacity="0.9" cx="403" cy="622" r="5" fill="#3F39B5"/>
<g clip-path="url(#clip0_7_152)">
<path d="M879 722.992C879 723.046 878.989 723.101 878.968 723.152C878.947 723.202 878.917 723.249 878.878 723.288C878.839 723.326 878.792 723.357 878.741 723.378C878.69 723.399 878.636 723.41 878.581 723.41H641.419C641.308 723.41 641.201 723.366 641.123 723.287C641.044 723.209 641 723.102 641 722.992C641 722.881 641.044 722.774 641.123 722.696C641.201 722.618 641.308 722.573 641.419 722.573H878.581C878.636 722.573 878.691 722.584 878.741 722.605C878.792 722.626 878.839 722.657 878.878 722.696C878.917 722.734 878.947 722.781 878.968 722.831C878.989 722.882 879 722.937 879 722.992Z" fill="#CCCCCC"/>
<path d="M739.275 705.17C781.101 705.17 815.007 671.354 815.007 629.641C815.007 587.928 781.101 554.113 739.275 554.113C697.449 554.113 663.543 587.928 663.543 629.641C663.543 671.354 697.449 705.17 739.275 705.17Z" fill="#E6E6E6"/>
<path d="M804.44 629.641C804.448 639.782 802.072 649.783 797.505 658.843C792.937 667.903 786.304 675.77 778.138 681.812C777.592 682.219 777.035 682.616 776.475 683.003C765.555 690.573 752.574 694.631 739.275 694.631C725.976 694.631 712.995 690.573 702.075 683.003C701.515 682.616 700.958 682.219 700.412 681.812C692.251 675.765 685.623 667.897 681.056 658.838C676.489 649.779 674.11 639.78 674.11 629.641C674.11 619.502 676.489 609.503 681.056 600.444C685.623 591.385 692.251 583.518 700.412 577.47C700.958 577.063 701.515 576.666 702.075 576.279C712.995 568.709 725.976 564.651 739.275 564.651C752.574 564.651 765.555 568.709 776.475 576.279C777.035 576.666 777.592 577.063 778.138 577.47C786.304 583.512 792.937 591.379 797.505 600.439C802.072 609.499 804.448 619.5 804.44 629.641Z" fill="white"/>
<path d="M739.275 689.01C772.152 689.01 798.804 662.429 798.804 629.641C798.804 596.852 772.152 570.272 739.275 570.272C706.398 570.272 679.746 596.852 679.746 629.641C679.746 662.429 706.398 689.01 739.275 689.01Z" fill="#C09AEC"/>
<path opacity="0.2" d="M739.43 570.438C738.528 570.438 737.631 570.462 736.738 570.501C751.784 571.82 765.765 578.793 775.847 590.008C785.93 601.223 791.362 615.841 791.041 630.9C790.721 645.96 784.672 660.335 774.121 671.113C763.57 681.891 749.306 688.266 734.218 688.947C735.936 689.095 737.673 689.176 739.43 689.176C755.218 689.176 770.36 682.921 781.524 671.787C792.688 660.653 798.959 645.553 798.959 629.807C798.959 614.061 792.688 598.961 781.524 587.827C770.36 576.693 755.218 570.438 739.43 570.438V570.438Z" fill="#3F39B5"/>
<path d="M739.451 566.057C738.938 566.058 738.445 566.261 738.082 566.624C737.719 566.986 737.515 567.477 737.514 567.989V576.42C737.514 576.932 737.718 577.424 738.081 577.786C738.445 578.148 738.937 578.352 739.451 578.352C739.965 578.352 740.458 578.148 740.821 577.786C741.184 577.424 741.388 576.932 741.388 576.42V567.989C741.388 567.477 741.183 566.986 740.82 566.624C740.457 566.261 739.965 566.058 739.451 566.057Z" fill="white"/>
<path d="M778.138 577.47C777.592 577.063 777.035 576.666 776.475 576.279C776.139 576.257 775.803 576.323 775.501 576.471C775.198 576.618 774.939 576.841 774.749 577.119L769.991 584.085C769.701 584.508 769.593 585.029 769.689 585.532C769.784 586.036 770.077 586.481 770.501 586.769C770.926 587.057 771.448 587.166 771.953 587.07C772.457 586.975 772.903 586.683 773.192 586.26L777.951 579.293C778.132 579.029 778.244 578.724 778.277 578.405C778.309 578.087 778.262 577.765 778.138 577.47Z" fill="white"/>
<path d="M799.759 609.234C799.663 608.999 799.522 608.786 799.343 608.605C799.165 608.425 798.952 608.281 798.718 608.183C798.484 608.084 798.232 608.033 797.978 608.031C797.724 608.029 797.472 608.078 797.237 608.173L789.403 611.346C788.927 611.539 788.548 611.912 788.349 612.384C788.149 612.856 788.146 613.388 788.339 613.862C788.532 614.336 788.906 614.715 789.379 614.914C789.852 615.114 790.385 615.118 790.861 614.925L798.695 611.753C799.17 611.559 799.549 611.185 799.748 610.713C799.948 610.241 799.951 609.709 799.759 609.234Z" fill="white"/>
<path d="M708.559 584.085L703.801 577.119C703.611 576.841 703.352 576.618 703.049 576.471C702.747 576.323 702.411 576.257 702.075 576.279C701.515 576.666 700.958 577.063 700.412 577.47C700.288 577.765 700.24 578.087 700.273 578.405C700.306 578.724 700.418 579.029 700.599 579.293L705.358 586.26C705.647 586.683 706.093 586.975 706.597 587.07C707.102 587.166 707.624 587.057 708.049 586.769C708.473 586.481 708.766 586.036 708.861 585.532C708.957 585.029 708.849 584.508 708.559 584.085Z" fill="white"/>
<path d="M689.147 611.345L681.313 608.173C680.837 607.98 680.304 607.984 679.831 608.183C679.358 608.383 678.983 608.761 678.79 609.236C678.597 609.711 678.6 610.242 678.8 610.714C679 611.186 679.379 611.56 679.855 611.753L687.689 614.925C688.165 615.117 688.698 615.113 689.171 614.914C689.644 614.715 690.018 614.336 690.211 613.862C690.404 613.387 690.401 612.856 690.201 612.384C690.002 611.912 689.623 611.539 689.147 611.345V611.345Z" fill="white"/>
<path d="M739.451 680.93C738.938 680.931 738.445 681.135 738.082 681.497C737.719 681.859 737.515 682.35 737.514 682.862V691.293C737.514 691.806 737.718 692.297 738.081 692.66C738.445 693.022 738.937 693.226 739.451 693.226C739.965 693.226 740.458 693.022 740.821 692.66C741.184 692.297 741.388 691.806 741.388 691.293V682.862C741.388 682.35 741.183 681.859 740.82 681.497C740.457 681.135 739.965 680.931 739.451 680.93Z" fill="white"/>
<path d="M777.951 679.989L773.192 673.022C773.049 672.813 772.866 672.633 772.653 672.494C772.441 672.355 772.203 672.259 771.953 672.212C771.703 672.165 771.446 672.167 771.197 672.218C770.948 672.27 770.712 672.37 770.501 672.513C770.291 672.656 770.111 672.838 769.972 673.051C769.832 673.263 769.736 673.5 769.689 673.749C769.641 673.999 769.643 674.255 769.695 674.503C769.747 674.751 769.847 674.987 769.991 675.197L774.749 682.163C774.939 682.441 775.198 682.664 775.501 682.811C775.803 682.959 776.139 683.025 776.475 683.003C777.035 682.616 777.592 682.219 778.138 681.812C778.262 681.516 778.309 681.195 778.277 680.877C778.244 680.558 778.132 680.253 777.951 679.989Z" fill="white"/>
<path d="M798.695 647.529L790.861 644.357C790.385 644.164 789.852 644.168 789.379 644.367C788.905 644.566 788.531 644.945 788.337 645.42C788.144 645.894 788.148 646.426 788.347 646.898C788.547 647.37 788.927 647.744 789.403 647.936L797.237 651.109C797.712 651.301 798.245 651.297 798.718 651.098C799.191 650.898 799.565 650.52 799.759 650.045C799.952 649.571 799.949 649.039 799.749 648.568C799.55 648.096 799.17 647.722 798.695 647.529V647.529Z" fill="white"/>
<path d="M708.049 672.513C707.624 672.225 707.102 672.117 706.597 672.212C706.093 672.308 705.647 672.599 705.358 673.022L700.599 679.989C700.418 680.253 700.306 680.558 700.273 680.877C700.241 681.195 700.288 681.517 700.412 681.812C700.958 682.219 701.515 682.616 702.075 683.003C702.411 683.025 702.747 682.959 703.049 682.811C703.352 682.664 703.611 682.441 703.801 682.163L708.559 675.197C708.703 674.987 708.803 674.752 708.855 674.503C708.907 674.255 708.909 673.999 708.861 673.75C708.814 673.5 708.718 673.263 708.578 673.051C708.439 672.839 708.259 672.656 708.049 672.513Z" fill="white"/>
<path d="M690.211 645.418C690.115 645.183 689.974 644.969 689.796 644.789C689.617 644.608 689.405 644.465 689.17 644.366C688.936 644.268 688.685 644.216 688.431 644.214C688.176 644.213 687.924 644.261 687.689 644.357L679.855 647.529C679.38 647.722 679 648.096 678.801 648.568C678.601 649.039 678.598 649.571 678.791 650.045C678.985 650.52 679.359 650.898 679.832 651.098C680.305 651.297 680.838 651.301 681.313 651.109L689.147 647.936C689.623 647.742 690.001 647.368 690.201 646.896C690.4 646.424 690.404 645.892 690.211 645.418Z" fill="white"/>
<path d="M741.965 628.682C742.144 629.738 741.895 630.822 741.274 631.696C740.653 632.569 739.709 633.162 738.651 633.342L704.272 639.174C703.748 639.263 703.211 639.248 702.692 639.131C702.174 639.013 701.684 638.794 701.25 638.487C700.816 638.18 700.447 637.791 700.164 637.342C699.88 636.893 699.689 636.392 699.6 635.869C699.51 635.346 699.525 634.811 699.644 634.293C699.762 633.776 699.981 633.287 700.289 632.855C700.597 632.422 700.987 632.054 701.437 631.771C701.888 631.489 702.389 631.298 702.914 631.209L737.292 625.377C738.351 625.199 739.438 625.446 740.314 626.066C741.19 626.686 741.783 627.627 741.965 628.682Z" fill="#3F39B5"/>
<path d="M778.147 666.668C777.653 667.163 776.982 667.443 776.282 667.446C775.582 667.449 774.909 667.174 774.411 666.683L737.403 630.064C736.907 629.572 736.626 628.903 736.624 628.205C736.621 627.506 736.897 626.836 737.39 626.34C737.883 625.844 738.554 625.564 739.254 625.561C739.954 625.558 740.627 625.832 741.125 626.323L778.132 662.942C778.629 663.435 778.909 664.104 778.912 664.802C778.915 665.501 778.64 666.172 778.147 666.668Z" fill="#3F39B5"/>
<path d="M739.275 634.208C741.804 634.208 743.854 632.163 743.854 629.641C743.854 627.119 741.804 625.074 739.275 625.074C736.746 625.074 734.696 627.119 734.696 629.641C734.696 632.163 736.746 634.208 739.275 634.208Z" fill="#CCCCCC"/>
<path d="M707.734 550.452C700.705 561.473 689.98 568.787 676.754 573.592C676.493 573.787 676.195 573.929 675.879 574.009C675.563 574.09 675.233 574.108 674.91 574.061C674.587 574.015 674.276 573.906 673.995 573.74C673.714 573.574 673.469 573.354 673.273 573.093C666.089 563.527 667.711 549.854 677.193 542.544C679.485 540.78 682.106 539.487 684.904 538.741C687.701 537.996 690.619 537.811 693.488 538.2C696.358 538.588 699.121 539.54 701.618 541.002C704.115 542.464 706.296 544.406 708.035 546.716L708.233 546.98C708.429 547.241 708.572 547.537 708.652 547.853C708.733 548.168 708.751 548.497 708.704 548.819C708.658 549.141 708.548 549.452 708.382 549.732C708.215 550.012 707.995 550.256 707.734 550.452Z" fill="#E6E6E6"/>
<path d="M770.515 546.716C772.254 544.406 774.435 542.464 776.932 541.002C779.429 539.54 782.192 538.588 785.062 538.2C787.931 537.811 790.849 537.996 793.646 538.741C796.444 539.487 799.065 540.78 801.357 542.544C810.839 549.854 812.461 563.527 805.277 573.093C805.081 573.354 804.836 573.574 804.555 573.74C804.274 573.906 803.963 574.015 803.64 574.061C803.316 574.108 802.987 574.09 802.671 574.009C802.355 573.929 802.057 573.787 801.796 573.592C789.518 568.903 779.449 560.791 770.816 550.452C770.288 550.057 769.939 549.47 769.845 548.819C769.752 548.168 769.921 547.507 770.317 546.98L770.515 546.716Z" fill="#E6E6E6"/>
<path d="M767.434 695.076C766.987 695.327 766.657 695.745 766.517 696.238C766.378 696.73 766.44 697.258 766.69 697.706L777.871 717.632C778.122 718.079 778.54 718.409 779.035 718.548C779.529 718.687 780.059 718.624 780.507 718.374C780.956 718.124 781.286 717.707 781.426 717.213C781.565 716.72 781.503 716.192 781.252 715.745L770.071 695.819C769.82 695.372 769.401 695.043 768.907 694.904C768.412 694.765 767.883 694.827 767.434 695.076Z" fill="#E6E6E6"/>
<path d="M708.479 695.819L697.298 715.745C697.047 716.192 696.985 716.72 697.124 717.213C697.264 717.706 697.594 718.124 698.043 718.374C698.491 718.624 699.021 718.687 699.515 718.548C700.01 718.408 700.428 718.079 700.679 717.632L711.86 697.706C711.984 697.484 712.064 697.241 712.094 696.989C712.124 696.736 712.103 696.481 712.034 696.237C711.965 695.993 711.848 695.764 711.691 695.565C711.533 695.366 711.338 695.2 711.116 695.076C710.894 694.952 710.649 694.873 710.397 694.843C710.144 694.813 709.888 694.833 709.643 694.902C709.398 694.971 709.169 695.088 708.97 695.245C708.77 695.402 708.603 695.597 708.479 695.819H708.479Z" fill="#E6E6E6"/>
<path d="M780.135 722.734C783.442 722.734 786.123 720.061 786.123 716.762C786.123 713.464 783.442 710.79 780.135 710.79C776.828 710.79 774.147 713.464 774.147 716.762C774.147 720.061 776.828 722.734 780.135 722.734Z" fill="#E6E6E6"/>
<path d="M784.362 569.921C787.669 569.921 790.35 567.247 790.35 563.949C790.35 560.651 787.669 557.977 784.362 557.977C781.055 557.977 778.374 560.651 778.374 563.949C778.374 567.247 781.055 569.921 784.362 569.921Z" fill="#E6E6E6"/>
<path d="M738.923 555.869C742.23 555.869 744.911 553.195 744.911 549.897C744.911 546.599 742.23 543.925 738.923 543.925C735.616 543.925 732.935 546.599 732.935 549.897C732.935 553.195 735.616 555.869 738.923 555.869Z" fill="#E6E6E6"/>
<path d="M695.597 569.218C698.904 569.218 701.585 566.544 701.585 563.246C701.585 559.948 698.904 557.274 695.597 557.274C692.29 557.274 689.609 559.948 689.609 563.246C689.609 566.544 692.29 569.218 695.597 569.218Z" fill="#E6E6E6"/>
<path d="M699.472 722.734C702.779 722.734 705.46 720.061 705.46 716.762C705.46 713.464 702.779 710.79 699.472 710.79C696.164 710.79 693.483 713.464 693.483 716.762C693.483 720.061 696.164 722.734 699.472 722.734Z" fill="#E6E6E6"/>
<path d="M775.438 663.309C775.674 663.678 775.988 663.99 776.359 664.225C776.729 664.459 777.146 664.61 777.581 664.666C778.016 664.722 778.458 664.682 778.876 664.55C779.294 664.417 779.677 664.195 780 663.898L789.396 668.92L788.892 663.418L780.047 659.493C779.511 658.986 778.808 658.692 778.07 658.668C777.332 658.643 776.611 658.889 776.043 659.36C775.475 659.83 775.099 660.492 774.988 661.22C774.876 661.948 775.037 662.691 775.438 663.309H775.438Z" fill="#FFB7B7"/>
<path d="M802.575 746.438L802.832 747.087H802.575V746.438Z" fill="#2F2E41"/>
</g>
<circle cx="1054.5" cy="648.5" r="4.5" fill="#3F39B5"/>
<defs>
<clipPath id="clip0_7_152">
<rect width="238" height="222" fill="white" transform="translate(641 538)"/>
</clipPath>
</defs>
</svg>
